Coordinates
version=1
nRows=17
nColumns=40
inDegrees=yes

Units are S.I. units (second, meters, Newtons, ...)
If the header above contains a line with 'inDegrees', this indicates whether rotational values are in degrees (yes) or radians (no).

endheader
time	pelvis_tilt	pelvis_list	pelvis_rotation	pelvis_tx	pelvis_ty	pelvis_tz	hip_flexion_r	hip_adduction_r	hip_rotation_r	knee_angle_r	knee_angle_r_beta	ankle_angle_r	subtalar_angle_r	mtp_angle_r	hip_flexion_l	hip_adduction_l	hip_rotation_l	knee_angle_l	knee_angle_l_beta	ankle_angle_l	subtalar_angle_l	mtp_angle_l	lumbar_extension	lumbar_bending	lumbar_rotation	arm_flex_r	arm_add_r	arm_rot_r	elbow_flex_r	pro_sup_r	wrist_flex_r	wrist_dev_r	arm_flex_l	arm_add_l	arm_rot_l	elbow_flex_l	pro_sup_l	wrist_flex_l	wrist_dev_l
      2.43000000	     -1.13697020	    -11.60267272	     81.19240749	      0.21847032	      0.94820532	     -0.63277160	     -8.81432289	      0.81911425	      7.23046327	      9.02535177	      0.15752210	     13.62126299	      0.00000000	      0.00000000	     36.05063677	     -2.63560026	     -3.11363807	      2.02319173	      0.03531136	     -4.37654542	      0.00000000	      0.00000000	      4.73939954	     -2.37907581	      5.94039058	      0.00000000	      0.00000000	      0.00000000	      0.00000000	      0.00000000	      0.00000000	      0.00000000	      0.00000000	      0.00000000	      0.00000000	      0.00000000	      0.00000000	      0.00000000	      0.00000000
      2.44000000	     -1.59380402	    -11.74666847	     81.07566727	      0.21717759	      0.94741634	     -0.64627901	     -8.78824288	      0.17277440	      7.08293332	     10.02643406	      0.17499429	     12.75622999	      0.00000000	      0.00000000	     36.00905291	     -2.09986654	     -3.21803619	      2.76326712	      0.04822811	     -5.79335956	      0.00000000	      0.00000000	      5.10074426	     -2.86909877	      5.97551537	      0.00000000	      0.00000000	      0.00000000	      0.00000000	      0.00000000	      0.00000000	      0.00000000	      0.00000000	      0.00000000	      0.00000000	      0.00000000	      0.00000000	      0.00000000	      0.00000000
      2.45000000	     -2.09951491	    -11.89809183	     81.00726676	      0.21581344	      0.94690835	     -0.65987202	     -8.63910942	     -0.50812035	      6.84259877	     11.18683777	      0.19524715	     11.71147776	      0.00000000	      0.00000000	     35.95106110	     -1.49047189	     -3.38852288	      3.47288400	      0.06061326	     -7.24888810	      0.00000000	      0.00000000	      5.48570423	     -3.42403984	      5.94999995	      0.00000000	      0.00000000	      0.00000000	      0.00000000	      0.00000000	      0.00000000	      0.00000000	      0.00000000	      0.00000000	      0.00000000	      0.00000000	      0.00000000	      0.00000000	      0.00000000
      2.46000000	     -2.66644887	    -12.04720113	     80.99473156	      0.21435595	      0.94670918	     -0.67351036	     -8.35232602	     -1.23859665	      6.47249766	     12.54466211	      0.21894566	     10.46182988	      0.00000000	      0.00000000	     35.87066517	     -0.78698468	     -3.64111725	      4.13809859	      0.07222345	     -8.71776568	      0.00000000	      0.00000000	      5.88007978	     -4.04830721	      5.87378791	      0.00000000	      0.00000000	      0.00000000	      0.00000000	      0.00000000	      0.00000000	      0.00000000	      0.00000000	      0.00000000	      0.00000000	      0.00000000	      0.00000000	      0.00000000	      0.00000000
      2.47000000	     -3.24778487	    -12.15111072	     81.01753634	      0.21280427	      0.94688738	     -0.68716706	     -7.97352798	     -1.98055227	      6.10926858	     14.10332779	      0.24614951	      9.05194301	      0.00000000	      0.00000000	     35.75185782	     -0.04529888	     -3.85548967	      4.85649717	      0.08476187	     -9.96579104	      0.00000000	      0.00000000	      6.23370815	     -4.70126686	      5.73818240	      0.00000000	      0.00000000	      0.00000000	      0.00000000	      0.00000000	      0.00000000	      0.00000000	      0.00000000	      0.00000000	      0.00000000	      0.00000000	      0.00000000	      0.00000000	      0.00000000
      2.48000000	     -3.86636787	    -12.24045725	     81.09651804	      0.21118507	      0.94737212	     -0.70082635	     -7.45294348	     -2.76122080	      5.58894113	     15.88089723	      0.27717394	      7.38001825	      0.00000000	      0.00000000	     35.62155761	      0.76110306	     -4.10799793	      5.59066517	      0.09757551	    -11.05425882	      0.00000000	      0.00000000	      6.57088114	     -5.40369314	      5.52920430	      0.00000000	      0.00000000	      0.00000000	      0.00000000	      0.00000000	      0.00000000	      0.00000000	      0.00000000	      0.00000000	      0.00000000	      0.00000000	      0.00000000	      0.00000000	      0.00000000
      2.49000000	     -4.48041181	    -12.28324822	     81.23436680	      0.20949192	      0.94821018	     -0.71442230	     -6.82919980	     -3.53768785	      5.00896703	     17.87637129	      0.31200154	      5.50682181	      0.00000000	      0.00000000	     35.45357202	      1.59814331	     -4.32653043	      6.37380918	      0.11124396	    -11.84338223	      0.00000000	      0.00000000	      6.84594687	     -6.11455707	      5.26456111	      0.00000000	      0.00000000	      0.00000000	      0.00000000	      0.00000000	      0.00000000	      0.00000000	      0.00000000	      0.00000000	      0.00000000	      0.00000000	      0.00000000	      0.00000000	      0.00000000
      2.50000000	     -5.07242133	    -12.26858022	     81.39425195	      0.20777567	      0.94937676	     -0.72792819	     -6.09755912	     -4.30506648	      4.41571406	     20.10721339	      0.35093708	      3.46121355	      0.00000000	      0.00000000	     35.22962947	      2.42950100	     -4.48939822	      7.20736339	      0.12579222	    -12.32059489	      0.00000000	      0.00000000	      7.04048968	     -6.80640356	      4.94706597	      0.00000000	      0.00000000	      0.00000000	      0.00000000	      0.00000000	      0.00000000	      0.00000000	      0.00000000	      0.00000000	      0.00000000	      0.00000000	      0.00000000	      0.00000000	      0.00000000
      2.51000000	     -5.64407552	    -12.21823584	     81.61546176	      0.20599460	      0.95082031	     -0.74131093	     -5.26181693	     -5.05748833	      3.78564670	     22.52752031	      0.39317940	      1.26865991	     -0.00000000	      0.00000000	     34.96334611	      3.27808138	     -4.60762989	      8.06174398	      0.14070398	    -12.48596109	     -0.00000000	     -0.00000000	      7.17490454	     -7.48893400	      4.60749317	      0.00000000	     -0.00000000	     -0.00000000	      0.00000000	      0.00000000	      0.00000000	     -0.00000000	     -0.00000000	      0.00000000	     -0.00000000	      0.00000000	      0.00000000	     -0.00000000	      0.00000000
      2.52000000	     -6.17096286	    -12.11560941	     81.83926682	      0.20420874	      0.95250808	     -0.75452689	     -4.32362899	     -5.78380256	      3.19871279	     25.14615033	      0.43888312	     -1.00363195	      0.00000000	      0.00000000	     34.63685134	      4.09243604	     -4.63741240	      8.95234625	      0.15624792	    -12.35118710	      0.00000000	      0.00000000	      7.22924467	     -8.11682572	      4.23536539	      0.00000000	      0.00000000	      0.00000000	      0.00000000	      0.00000000	      0.00000000	      0.00000000	      0.00000000	      0.00000000	      0.00000000	      0.00000000	      0.00000000	      0.00000000	      0.00000000
      2.53000000	     -6.62708988	    -11.95624797	     82.07094998	      0.20243979	      0.95441739	     -0.76753903	     -3.30446124	     -6.45416438	      2.66816442	     27.92453907	      0.48737515	     -3.28922191	      0.00000000	      0.00000000	     34.22162695	      4.85029695	     -4.60439475	      9.83121899	      0.17158714	    -11.94345868	      0.00000000	      0.00000000	      7.18827558	     -8.66646533	      3.84953902	      0.00000000	      0.00000000	      0.00000000	      0.00000000	      0.00000000	      0.00000000	      0.00000000	      0.00000000	      0.00000000	      0.00000000	      0.00000000	      0.00000000	      0.00000000	      0.00000000
      2.54000000	     -7.01698264	    -11.76850409	     82.28876642	      0.20068681	      0.95647138	     -0.78028581	     -2.17591979	     -7.06596871	      2.22081017	     30.84098902	      0.53827680	     -5.48965228	      0.00000000	      0.00000000	     33.74146621	      5.54490373	     -4.51402996	     10.67076279	      0.18623994	    -11.32186109	      0.00000000	      0.00000000	      7.08850807	     -9.12684985	      3.46606172	      0.00000000	      0.00000000	      0.00000000	      0.00000000	      0.00000000	      0.00000000	      0.00000000	      0.00000000	      0.00000000	      0.00000000	      0.00000000	      0.00000000	      0.00000000	      0.00000000
      2.55000000	     -7.32215716	    -11.53250636	     82.48330310	      0.19898854	      0.95866467	     -0.79276904	     -0.98161112	     -7.59809606	      1.88144680	     33.83612136	      0.59055172	     -7.53497078	     -0.00000000	      0.00000000	     33.15716748	      6.15686415	     -4.38263319	     11.44113975	      0.19968556	    -10.53073170	     -0.00000000	      0.00000000	      6.90612079	     -9.47567906	      3.08889962	      0.00000000	     -0.00000000	      0.00000000	      0.00000000	      0.00000000	      0.00000000	     -0.00000000	      0.00000000	     -0.00000000	      0.00000000	      0.00000000	      0.00000000	     -0.00000000	      0.00000000
      2.56000000	     -7.55086472	    -11.31891041	     82.66004497	      0.19732326	      0.96087643	     -0.80490891	      0.34411105	     -8.03750514	      1.64498370	     36.88170787	      0.64370724	     -9.30380536	      0.00000000	      0.00000000	     32.54710755	      6.68682790	     -4.22426908	     12.12459524	      0.21161411	     -9.63734609	      0.00000000	      0.00000000	      6.71495486	     -9.72579423	      2.74810958	      0.00000000	      0.00000000	      0.00000000	      0.00000000	      0.00000000	      0.00000000	      0.00000000	      0.00000000	      0.00000000	      0.00000000	      0.00000000	      0.00000000	      0.00000000	      0.00000000
      2.57000000	     -7.69154219	    -11.05738753	     82.79340943	      0.19576533	      0.96318075	     -0.81676246	      1.69698573	     -8.37804772	      1.51353058	     39.90523670	      0.69647777	    -10.77186186	      0.00000000	      0.00000000	     31.82160757	      7.11764293	     -4.04346401	     12.70305130	      0.22171007	     -8.68646942	      0.00000000	      0.00000000	      6.45041034	     -9.86003462	      2.40933641	      0.00000000	      0.00000000	      0.00000000	      0.00000000	      0.00000000	      0.00000000	      0.00000000	      0.00000000	      0.00000000	      0.00000000	      0.00000000	      0.00000000	      0.00000000	      0.00000000
      2.58000000	     -7.76066495	    -10.81395612	     82.88784789	      0.19425706	      0.96547368	     -0.82827380	      3.14101425	     -8.62637718	      1.47184889	     42.87842821	      0.74836975	    -11.87057039	     -0.00000000	      0.00000000	     31.05160675	      7.46346783	     -3.87263479	     13.15370528	      0.22957547	     -7.71241300	      0.00000000	     -0.00000000	      6.18071191	     -9.89002245	      2.11611329	      0.00000000	      0.00000000	      0.00000000	      0.00000000	      0.00000000	      0.00000000	     -0.00000000	     -0.00000000	     -0.00000000	      0.00000000	      0.00000000	      0.00000000	      0.00000000	     -0.00000000
      2.59000000	     -7.47413771	    -10.35164693	     82.99826686	      0.19307804	      0.96820880	     -0.83961403	      4.26873361	     -8.44273682	      1.53568375	     45.57185850	      0.79537898	    -12.48382393	      0.00000000	      0.00000000	     29.92588556	      7.45180544	     -3.72549767	     13.47130259	      0.23511858	     -7.16121689	      0.00000000	      0.00000000	      5.60102232	     -9.53898501	      1.83538138	      0.00000000	      0.00000000	      0.00000000	      0.00000000	      0.00000000	      0.00000000	      0.00000000	      0.00000000	      0.00000000	      0.00000000	      0.00000000	      0.00000000	      0.00000000	      0.00000000
